<svg xmlns="http://www.w3.org/2000/svg" xmlns:xlink="http://www.w3.org/1999/xlink" id="Layer_1" x="0px" y="0px" viewBox="0 0 1656 648" style="enable-background:new 0 0 1656 648;" xml:space="preserve"> <style type="text/css"> .st0{fill:#69B342;} .st1{fill:#0080C5;} </style> <g id="XMLID_5_"> <g id="XMLID_56_"> <g id="XMLID_58_"> <path id="XMLID_83_" class="st0" d="M429.2,166.6c22.2,0,39.3,4.1,51.1,12.2c11.9,8.1,17.8,20.8,17.8,38c0,9-1.6,16.7-4.8,23.1 c-3.2,6.4-7.8,11.6-13.8,15.7c-6,4.1-13.4,7-22.1,8.9c-8.7,1.9-18.6,2.9-29.8,2.9h-13.9v53.9h-27.8V170.3 c6.5-1.5,13.7-2.5,21.5-3C415.3,166.8,422.6,166.6,429.2,166.6z M431.2,190.6c-7.1,0-12.9,0.2-17.5,0.7v52.1h13.5 c13.4,0,23.7-1.9,30.9-5.6c7.2-3.8,10.8-10.9,10.8-21.3c0-5-1-9.2-2.9-12.6c-1.9-3.4-4.6-6-8-8c-3.4-1.9-7.4-3.3-12-4.1 C441.4,191,436.5,190.6,431.2,190.6z"></path> <path id="XMLID_86_" class="st0" d="M518.2,321.2V168.1h98.3v23.6H546v37.8h62.7v23.2H546v44.8h75.8v23.6H518.2z"></path> <path id="XMLID_125_" class="st0" d="M748.7,321.2c-5-8.4-10.6-17.4-16.8-27.1c-6.2-9.6-12.6-19.4-19.2-29.2 c-6.6-9.8-13.4-19.3-20.2-28.5c-6.8-9.2-13.4-17.5-19.5-24.9v109.6h-27.4V168.1h22.8c5.9,6.2,12.2,13.5,19,22 c6.8,8.5,13.6,17.3,20.4,26.4c6.8,9.1,13.5,18.3,19.9,27.5c6.4,9.2,12.1,17.8,17.1,25.7V168.1h27.6v153.1H748.7z"></path> <path id="XMLID_128_" class="st0" d="M805.7,168.1h27.8v153.1h-27.8V168.1z"></path> <path id="XMLID_130_" class="st0" d="M970.1,321.2c-5-8.4-10.6-17.4-16.8-27.1c-6.2-9.6-12.6-19.4-19.2-29.2 c-6.6-9.8-13.4-19.3-20.2-28.5c-6.8-9.2-13.4-17.5-19.5-24.9v109.6h-27.4V168.1h22.8c5.9,6.2,12.2,13.5,19,22 c6.8,8.5,13.6,17.3,20.4,26.4c6.8,9.1,13.5,18.3,19.9,27.5c6.4,9.2,12.1,17.8,17.1,25.7V168.1h27.6v153.1H970.1z"></path> <path id="XMLID_132_" class="st0" d="M1065.3,300.4c10,0,17.3-1.7,21.9-5.1c4.6-3.4,6.8-8.2,6.8-14.4c0-3.7-0.8-6.8-2.3-9.5 c-1.5-2.7-3.8-5-6.6-7.2c-2.9-2.1-6.4-4.1-10.5-6c-4.1-1.8-8.8-3.6-14.1-5.4c-5.3-1.9-10.4-4-15.4-6.3c-4.9-2.3-9.3-5.1-13-8.5 c-3.8-3.4-6.8-7.4-9.1-12.1c-2.3-4.7-3.4-10.4-3.4-17c0-13.8,4.8-24.7,14.4-32.6c9.6-7.9,22.6-11.8,39.1-11.8 c9.6,0,18.1,1.1,25.5,3.2c7.4,2.1,13.3,4.5,17.6,7l-8.6,22.5c-5-2.8-10.5-4.9-16.5-6.4c-6-1.5-12.1-2.2-18.4-2.2 c-7.5,0-13.4,1.5-17.6,4.6c-4.2,3.1-6.3,7.4-6.3,13c0,3.4,0.7,6.3,2.1,8.7c1.4,2.4,3.4,4.6,6,6.5c2.6,1.9,5.6,3.7,9.1,5.3 c3.5,1.6,7.3,3.2,11.4,4.6c7.2,2.7,13.7,5.3,19.3,8.1c5.7,2.7,10.5,6,14.4,9.7c3.9,3.8,6.9,8.2,8.9,13.3 c2.1,5.1,3.1,11.2,3.1,18.4c0,13.8-4.9,24.6-14.7,32.1c-9.8,7.6-24.1,11.4-43,11.4c-6.3,0-12.1-0.4-17.3-1.2 c-5.2-0.8-9.9-1.8-13.9-3c-4.1-1.2-7.5-2.4-10.5-3.6c-2.9-1.2-5.3-2.4-7.1-3.4l8.2-22.8c4,2.2,9.4,4.4,16.1,6.6 C1047.6,299.3,1055.7,300.4,1065.3,300.4z"></path> <path id="XMLID_139_" class="st0" d="M1203.5,324.5c-10.5,0-19.4-1.5-27-4.5c-7.5-3-13.7-7.3-18.7-12.7 c-4.9-5.4-8.6-11.9-10.9-19.2c-2.4-7.4-3.5-15.5-3.5-24.3v-95.6h28.1v93c0,6.9,0.8,12.8,2.3,17.8c1.5,4.9,3.8,8.9,6.6,12 c2.9,3.1,6.3,5.4,10.2,6.8c3.9,1.5,8.3,2.2,13.1,2.2c4.9,0,9.3-0.7,13.3-2.2c4-1.5,7.4-3.8,10.3-6.8c2.9-3.1,5.1-7.1,6.6-12 c1.5-4.9,2.3-10.9,2.3-17.8v-93h28.1v95.6c0,8.8-1.2,16.9-3.6,24.3c-2.4,7.4-6.1,13.8-11,19.2c-4.9,5.4-11.2,9.7-18.9,12.7 C1223,323,1213.9,324.5,1203.5,324.5z"></path> <path id="XMLID_146_" class="st0" d="M1393.4,297.1v24.1h-96.8V168.1h27.8v129H1393.4z"></path> <path id="XMLID_149_" class="st0" d="M1523.1,321.2c-2.1-6-4.2-12-6.4-17.9c-2.2-5.9-4.4-11.9-6.4-18.1h-64.7 c-2.1,6.2-4.2,12.3-6.3,18.2c-2.1,6-4.2,11.9-6.3,17.8H1404c5.7-16.3,11.2-31.4,16.3-45.3c5.2-13.8,10.2-26.9,15.1-39.3 c4.9-12.4,9.8-24.2,14.7-35.3c4.9-11.2,9.9-22.2,15-33.1h26.6c5.2,10.9,10.2,21.9,15,33.1c4.9,11.2,9.8,23,14.7,35.3 c4.9,12.4,10,25.5,15.2,39.3c5.2,13.8,10.7,28.9,16.5,45.3H1523.1z M1477.9,197.7c-3.4,7.8-7.3,17.3-11.6,28.5 c-4.3,11.2-8.9,23.3-13.6,36.4h50.4c-4.7-13.1-9.3-25.3-13.7-36.7C1485,214.6,1481.1,205.2,1477.9,197.7z"></path> </g> <g id="XMLID_57_"> <path id="XMLID_59_" class="st1" d="M432.1,480c-8.6,0-16.3-1.3-23.1-4c-6.8-2.6-12.6-6.5-17.3-11.6c-4.7-5.1-8.4-11.4-10.9-18.7 c-2.5-7.4-3.8-15.9-3.8-25.4c0-9.6,1.5-18.1,4.4-25.4c2.9-7.4,6.9-13.6,12-18.7c5.1-5.1,11-9,17.8-11.6c6.8-2.6,14.1-4,22-4 c4.7,0,9,0.4,12.9,1.1c3.9,0.7,7.2,1.5,10.1,2.4c2.9,0.9,5.2,1.8,7.1,2.8c1.9,1,3.2,1.7,4,2.1l-6.1,17c-2.6-1.7-6.4-3.2-11.3-4.7 c-4.9-1.5-10.2-2.2-15.9-2.2c-5,0-9.6,0.9-13.9,2.6c-4.3,1.7-8,4.3-11.1,7.7c-3.1,3.4-5.6,7.7-7.3,12.9c-1.8,5.2-2.6,11.2-2.6,18 c0,6.1,0.7,11.6,2.1,16.7c1.4,5.1,3.5,9.4,6.4,13.1c2.9,3.7,6.5,6.5,10.9,8.6c4.4,2,9.7,3.1,15.8,3.1c7.4,0,13.4-0.7,18-2.2 c4.6-1.5,8.2-2.9,10.7-4.2l5.6,17c-1.3,0.9-3.1,1.8-5.4,2.6c-2.3,0.9-4.9,1.7-8,2.6c-3.1,0.8-6.5,1.5-10.4,2 C440.6,479.7,436.5,480,432.1,480z"></path> <path id="XMLID_61_" class="st1" d="M555.3,459.5v18H483V363.1h20.8v96.4H555.3z"></path> <path id="XMLID_63_" class="st1" d="M568.9,477.5V363.1h73.5v17.7h-52.7V409h46.9v17.3h-46.9v33.5h56.6v17.7H568.9z"></path> <path id="XMLID_65_" class="st1" d="M744.9,477.5c-1.5-4.5-3.1-9-4.8-13.4c-1.7-4.4-3.3-8.9-4.8-13.5h-48.3 c-1.5,4.6-3.1,9.2-4.7,13.6c-1.6,4.5-3.2,8.9-4.7,13.3h-21.6c4.3-12.2,8.4-23.5,12.2-33.8c3.8-10.3,7.6-20.1,11.3-29.4 c3.7-9.2,7.3-18,11-26.4c3.6-8.4,7.4-16.6,11.2-24.8h19.9c3.9,8.1,7.6,16.4,11.2,24.8c3.6,8.4,7.3,17.2,11,26.4 c3.7,9.2,7.5,19,11.4,29.4c3.9,10.3,8,21.6,12.3,33.8H744.9z M711.1,385.2c-2.5,5.8-5.4,12.9-8.7,21.3 c-3.2,8.4-6.6,17.4-10.2,27.2h37.6c-3.5-9.8-6.9-18.9-10.2-27.4C716.4,397.9,713.5,390.8,711.1,385.2z"></path> <path id="XMLID_68_" class="st1" d="M857.4,477.5c-3.7-6.3-7.9-13-12.5-20.2c-4.6-7.2-9.4-14.5-14.4-21.8 c-5-7.3-10-14.4-15.1-21.3c-5.1-6.9-10-13.1-14.6-18.6v81.9h-20.5V363.1h17c4.4,4.6,9.1,10.1,14.2,16.4 c5.1,6.3,10.2,12.9,15.3,19.7c5.1,6.8,10.1,13.7,14.9,20.6c4.8,6.9,9.1,13.3,12.8,19.2v-75.9h20.6v114.4H857.4z"></path> <path id="XMLID_70_" class="st1" d="M941,477.5V363.1h73.5v17.7h-52.7V409h46.9v17.3h-46.9v33.5h56.6v17.7H941z"></path> <path id="XMLID_72_" class="st1" d="M1113.3,477.5c-3.7-6.3-7.9-13-12.5-20.2c-4.6-7.2-9.4-14.5-14.4-21.8 c-5-7.3-10-14.4-15.1-21.3c-5.1-6.9-10-13.1-14.6-18.6v81.9h-20.5V363.1h17c4.4,4.6,9.1,10.1,14.2,16.4 c5.1,6.3,10.2,12.9,15.3,19.7c5.1,6.8,10.1,13.7,14.9,20.6c4.8,6.9,9.1,13.3,12.8,19.2v-75.9h20.6v114.4H1113.3z"></path> <path id="XMLID_74_" class="st1" d="M1155.9,477.5V363.1h73.5v17.7h-52.7V409h46.9v17.3h-46.9v33.5h56.6v17.7H1155.9z"></path> <path id="XMLID_76_" class="st1" d="M1282.6,361.9c16.5,0,29.1,3,37.9,9.1c8.7,6.1,13.1,15.3,13.1,27.7c0,15.5-7.7,26-22.9,31.5 c2.1,2.5,4.5,5.6,7.1,9.2c2.6,3.6,5.3,7.6,8.1,11.8c2.8,4.2,5.4,8.6,7.9,13c2.5,4.5,4.8,8.8,6.8,13.1h-23.3c-2.1-4-4.3-8-6.8-12 c-2.4-4-4.9-7.9-7.3-11.7c-2.5-3.8-4.9-7.4-7.3-10.7c-2.4-3.4-4.7-6.4-6.8-9c-1.5,0.1-2.9,0.2-4,0.2c-1.1,0-2.1,0-3.1,0h-10.1 v43.3h-20.8V364.8c5.1-1.1,10.5-1.8,16.2-2.2C1273,362.1,1278.1,361.9,1282.6,361.9z M1284.1,379.9c-4.4,0-8.5,0.2-12.2,0.5v37 h9.1c5.1,0,9.5-0.3,13.4-0.8c3.9-0.5,7.1-1.5,9.7-3c2.6-1.4,4.5-3.4,5.9-5.8c1.3-2.4,2-5.5,2-9.2c0-3.5-0.7-6.5-2-8.9 c-1.3-2.4-3.2-4.3-5.7-5.8c-2.5-1.4-5.4-2.4-8.8-3.1C1291.9,380.2,1288.2,379.9,1284.1,379.9z"></path> <path id="XMLID_79_" class="st1" d="M1406,378.8c-11.8,0-20.8,3.7-27,11c-6.2,7.3-9.3,17.5-9.3,30.5c0,6.2,0.7,11.8,2.2,16.9 c1.5,5.1,3.7,9.5,6.6,13.1c2.9,3.6,6.5,6.5,10.9,8.5c4.3,2,9.4,3.1,15.3,3.1c3.6,0,6.8-0.1,9.4-0.4c2.6-0.3,4.7-0.6,6.3-1.1 v-41.1h20.8v55c-2.9,1.1-7.7,2.3-14.5,3.6c-6.8,1.3-14.7,2-23.6,2c-8.3,0-15.8-1.3-22.6-4c-6.8-2.6-12.6-6.5-17.4-11.6 c-4.8-5.1-8.5-11.3-11.1-18.7c-2.6-7.4-4-15.9-4-25.4c0-9.6,1.5-18.1,4.4-25.4c2.9-7.4,6.9-13.6,12-18.7c5.1-5.1,11-9,17.8-11.6 c6.8-2.6,14.1-4,21.8-4c5.3,0,10,0.4,14.1,1.1c4.1,0.7,7.7,1.5,10.6,2.4c3,0.9,5.4,1.8,7.3,2.8c1.9,1,3.3,1.7,4,2.1l-6.3,17 c-3.3-2-7.4-3.7-12.3-5C1416.5,379.5,1411.4,378.8,1406,378.8z"></path> <path id="XMLID_81_" class="st1" d="M1502.7,413.8c5-8.3,9.8-16.6,14.5-25.1c4.7-8.5,9-17,12.9-25.6h23.1 c-6.2,11.7-12.6,23.3-19.2,34.8c-6.7,11.5-13.8,23.1-21.4,34.8v44.9h-20.8v-44.6c-7.6-11.8-14.8-23.4-21.5-35 c-6.7-11.6-13.2-23.2-19.3-34.8h24.4c3.9,8.6,8.1,17.1,12.7,25.6C1492.8,397.2,1497.7,405.5,1502.7,413.8z"></path> </g> </g> <g id="XMLID_29_"> <path class="st0" d="M313.6,305.6l-0.2-6.3l-0.6-6.3c-0.9-8.4-2.3-16.6-4.4-24.7c-0.9-4.1-2.2-8-3.3-12c-1.3-3.9-2.5-7.9-4.1-11.7 c-2.8-7.8-6.2-15.2-9.7-22.7c-3.6-7.4-7.3-14.7-11.4-21.7c-2-3.6-4.1-7-6.2-10.5c-2.2-3.4-4.3-6.9-6.5-10.3 c-4.4-6.8-9-13.5-13.7-20.1c-4.8-6.6-9.6-13-14.6-19.4c-5-6.3-10.1-12.6-15.3-18.8c-6.1,5.1-12,10.4-17.9,15.8 c-5.8,5.4-11.6,10.9-17.3,16.6c-5.6,5.6-11.2,11.4-16.5,17.4c-5.4,5.9-10.6,12-15.6,18.2c-5.1,6.2-9.8,12.7-14.5,19.3 c-4.6,6.6-9,13.4-13.1,20.4c-2.1,3.5-4,7.1-5.9,10.7c-0.9,1.8-1.8,3.7-2.7,5.5c-0.9,1.8-1.8,3.7-2.6,5.5c-3.4,7.4-6.2,15.2-8.7,23 c-2.3,7.9-4.1,16-5.2,24.3c-0.3,2.1-0.4,4.2-0.6,6.3l-0.2,3.1c-0.1,1,0,2.1-0.1,3.2c0,2.1-0.1,4.2,0,6.3l0.4,6.3 c0.8,8.4,2.1,16.8,4.7,24.9l0.9,3.1c0.3,1,0.7,2,1.1,3l2.4,6.1l2.5,5.4c0.9,1.9,2,3.8,3,5.8c4.1,7.4,8.8,14.4,14.1,20.9 c5.3,6.5,11.1,12.6,17.3,18.2c6.2,5.6,13,10.6,20,15.1c1.7,1.2,3.5,2.2,5.4,3.3c1.8,1.1,3.6,2.1,5.5,3.1c1.9,1,3.7,2,5.6,2.8 l2.9,1.3l0.7,0.3l0.4,0.2c0.1,0.1,0.1,0.1,0.7,0.3c1.1,0.4,2,0.6,2.7,0.7c1.8,0.5,3.5,0.6,5,0.6c0.9,0,1.8-0.2,2.6-0.3l0.6-0.1 l0.8-0.2l0.7-0.2l5.9-1.6l6.3-2l6-2.2c7.9-3.1,15.6-6.8,22.9-11c14.6-8.5,28.1-19.2,39.4-32c1.4-1.6,2.8-3.3,4.1-4.9 c1.4-1.6,2.6-3.4,3.9-5.1l1.9-2.6l0.3-0.4l0.1-0.2l0.2-0.3l0.4-0.6l0.8-1.3l3.2-5.1c4.4-7.9,7.8-15.7,10.3-24 c2.4-8.3,4.2-16.7,4.8-25.2c0.3-2.1,0.2-4.3,0.3-6.4C313.6,309.9,313.7,307.7,313.6,305.6z M271.7,372.1l-3.6,4.5l-3.8,4.3l-4,4.1 c-1.4,1.3-2.8,2.6-4.2,3.9l-4.4,3.7l-4.5,3.5l-4.7,3.3l-4.8,3.1l-5,2.9l-5.1,2.7l-5.2,2.5l-5.3,2.2l-5.4,2l-5.4,1.8l-5,1.4 c-12.5-6.4-23.9-14.7-33.9-24.3c-10.1-9.8-18.7-21-25-33.2c-0.8-1.5-1.6-3.1-2.3-4.6l-1.1-2.3l-0.9-2.3l-2-5l-1.5-4.8l-0.7-2.4 l-0.6-2.5l-1.2-5c-0.5-3.4-1.2-6.7-1.4-10c-0.8-6.7-0.6-13.5-0.1-20.2l0.5-5l0.8-5c0.2-1.7,0.6-3.3,1-5c0.4-1.6,0.7-3.3,1.1-4.9 c1.7-6.6,3.9-13,6.3-19.4c0.6-1.6,1.3-3.1,2-4.7c0.7-1.6,1.4-3.1,2.1-4.7l2.2-4.7l2.4-4.6c3.2-6.1,6.7-12.1,10.4-17.9 c3.6-5.9,7.7-11.6,11.7-17.3c4.1-5.6,8.3-11.2,12.8-16.6c4.4-5.5,8.9-10.9,13.5-16.1c4.6-5.3,9.3-10.5,14.1-15.7 c3-3.3,6.1-6.5,9.2-9.7c4.6,6,9.2,12,13.6,18.1c3,4.2,6,8.4,8.9,12.6c2.9,4.2,5.8,8.5,8.6,12.8c2.8,4.3,5.5,8.7,8.1,13.1l3.9,6.7 l3.7,6.8l3.5,6.9l3.4,6.9c1.1,2.3,2.1,4.7,3.2,7c1,2.4,1.9,4.8,2.9,7.1c1.9,4.8,3.6,9.7,5.1,14.6c1.5,4.9,2.8,9.9,3.9,14.9 c1.1,5,1.9,10.1,2.5,15.3c0.3,2.6,0.4,5.1,0.6,7.7c0.1,2.6,0.1,5.2,0.1,7.8c0,2.6-0.2,5.2-0.3,7.8c-0.2,2.6-0.6,5.1-0.9,7.7 l-1.4,7.6l-2,7.5c-0.8,2.5-1.6,4.9-2.5,7.4c-1,2.4-2,4.8-3.1,7.1c-1.2,2.3-2.4,4.6-3.6,6.9l-4.1,6.7l3.5-5.7 c-1.1,1.9-2.3,3.8-3.5,5.7c0,0,0,0,0,0l0,0L271.7,372.1z M281.9,355.7c-0.7,1.4-1.4,2.8-2.2,4.2 C280.4,358.5,281.1,357.1,281.9,355.7z"></path> </g> <g id="XMLID_32_"> <path class="st1" d="M237.4,244.3c0-0.1,0-0.2,0-0.3c0-0.2,0-0.5-0.1-0.7c0-0.2-0.1-0.4-0.2-0.5c0-0.1-0.1-0.3-0.1-0.4 c-0.1-0.2-0.2-0.5-0.4-0.7c0,0,0-0.1-0.1-0.1c-0.1-0.1-0.1-0.3-0.2-0.4c-0.9-1.2-2-2.3-3.3-3c-0.7-0.4-1.4-0.7-2.1-0.8 c-0.7-0.1-1.6-0.1-2.2,0.4c-0.6,0.5-0.7,1.4-0.9,2.1l-0.6,2.2c-1.6,5.8-3.2,11.6-4.9,17.4c-3.3,11.6-6.9,23.1-10.3,34.6l-5,17.4 c-1.6,5.8-3.2,11.7-4.7,17.5l-2.1,8.9c-0.6,3-1.3,5.9-1.8,9c-0.4,2.5-0.9,4.9-1.2,7.4c-0.5-0.7-1.1-1.3-1.6-2 c-2.6-3.4-5.2-6.9-7.5-10.3l-0.2-0.3l-0.1-0.2l-0.1-0.1l0,0l-0.4-0.6l-0.1-0.2c-0.1-0.1,0,0-0.1-0.1c-0.2-0.2-0.4-0.4-0.6-0.5 c-0.4-0.3-0.9-0.7-1.3-0.8c-0.3-0.1-0.6-0.3-0.9-0.4c-0.7-0.2-1.1-0.3-1.7-0.3c-0.4,0-0.9,0-1.3,0c-0.7,0.1-1.3,0.2-1.8,0.4 c-2,0.7-3.1,1.4-4.3,2.2c-2.3,1.7-4.2,3.3-6,5.8c-0.5,0.7-0.9,1.4-1.4,2.4c-0.2,0.6-0.5,1.2-0.6,2.1c-0.1,0.9-0.2,2.2,0.5,3.9 l1.6,3.2c1.1,2.1,2.2,4.1,3.3,6.1c2.3,4,4.8,7.8,7.4,11.5c2.6,3.7,5.5,7.3,8.3,10.7c1.4,1.7,2.9,3.4,4.4,5.1l2.3,2.5l1.1,1.2 l0.6,0.6l0.6,0.6l0.2,0.1l0.3,0.2l0.4,0.3c0.6,0.4,0.9,0.5,1.3,0.7c0.4,0.2,0.7,0.3,1,0.4c0.6,0.2,1.2,0.3,1.7,0.3 c1,0.1,1.9,0.1,2.7,0c1.6-0.2,3-0.5,4.3-1c1.4-0.5,2.7-1.1,4.2-2.1c0.7-0.6,1.5-1.1,2.4-2.4c0.4-0.6,0.9-1.6,1-2.8l0-0.5l0-0.2 l0-0.1c-1.8,5.6-0.5,1.6-0.9,2.8l0-0.2l0-0.4l0.4-4.7l0.4,1.9c-0.1-2.9-0.2-5.8-0.1-8.8c0-3,0.1-6,0.3-9c0.1-3,0.4-6,0.6-9 c0.2-3,0.5-6,0.8-9c0.6-6,1.3-12.1,2-18.1c0.4-3,0.8-6,1.2-9c0.4-3,0.9-6,1.3-9c1.8-12,3.9-24,6.4-35.9c1.2-6,2.5-11.9,3.9-17.8 c1.4-5.9,2.9-11.8,4.4-17.7c0,0,0,0,0,0C237.4,245,237.4,244.7,237.4,244.3z M237.4,244.3C237.4,244.2,237.4,244.2,237.4,244.3 C237.4,244.2,237.4,244.2,237.4,244.3z M237.2,243.2C237.2,243.1,237.2,243.1,237.2,243.2C237.2,243.1,237.2,243.1,237.2,243.2z M236.8,242.1C236.8,242.1,236.8,242.1,236.8,242.1C236.8,242.1,236.8,242.1,236.8,242.1z M235.7,251.4c0.5-2,1-4,1.6-5.9 L235.7,251.4z"></path> </g> <g id="XMLID_55_"> <path id="XMLID_152_" class="st0" d="M239.8,442.6c-0.1,0-0.2,0-0.2,0c-0.2,0-20.2,2-38.6,2c-18.4,0-38.4-2-38.6-2 c-0.1,0-0.2,0-0.2,0c-6.3,0-11.1,3.1-11.1,7.1v5c0,4.1,4.8,7.1,10.9,7.1c0,0,0,0,0,0c1.2,0.1,28.4,2,39,2c15.6,0,37.2-1.9,39-2 c6.3,0,11-3.1,11-7.1v-5C250.9,445.7,246.1,442.6,239.8,442.6z"></path> <path id="XMLID_153_" class="st0" d="M239.8,470.7c-0.1,0-0.2,0-0.2,0c-0.2,0-20.2,2-38.6,2c-18.4,0-38.4-2-38.6-2 c-0.1,0-0.2,0-0.2,0c-6.3,0-11.1,3.1-11.1,7.1v5c0,4.1,4.8,7.1,10.9,7.1c0,0,0,0,0,0c1.2,0.1,28.4,2,39,2c15.6,0,37.2-1.9,39-2 c6.3,0,11-3.1,11-7.1v-5C250.9,473.8,246.1,470.7,239.8,470.7z"></path> <path id="XMLID_154_" class="st0" d="M237.1,496.5h-72.2c-2.3,0-4.3,1.4-5.1,3.5c-0.8,2.1-0.2,4.5,1.5,6 c6.8,6.1,16.9,15.6,21,19.5c1,1,2.4,1.5,3.8,1.5h29.5c1.4,0,2.7-0.5,3.7-1.4l21.7-19.6c1.7-1.5,2.3-3.9,1.4-6 C241.3,497.9,239.3,496.5,237.1,496.5z"></path> </g> </g> </svg>